<?xml version="1.0" encoding="utf-8"?>
<!-- Generator: Adobe Illustrator 19.0.0, SVG Export Plug-In . SVG Version: 6.00 Build 0)  -->
<svg version="1.1" id="Layer_1" xmlns="http://www.w3.org/2000/svg" xmlns:xlink="http://www.w3.org/1999/xlink" x="0px" y="0px"
	 viewBox="0 0 1100 360" style="enable-background:new 0 0 1100 360;" xml:space="preserve">
<style type="text/css">
	.st0{fill:#29B7D6;}
	.st1{fill:#0783B4;}
	.st2{fill:#FFFFFF;}
</style>
<g>
	<g>
		<polygon id="Left_1_" class="st0" points="105.3,161.9 65.4,188.2 38,249.6 66.3,249.6 		"/>
		<polygon id="Right_1_" class="st0" points="124.1,119.6 105.3,161.9 147.3,134.2 95.9,249.6 124.1,249.6 206,65.6 		"/>
		<polygon id="Middle_1_" class="st1" points="105.3,161.9 66.3,249.6 95.9,249.6 147.3,134.2 		"/>
	</g>
	<g>
		<g id="XMLID_196_">
			<path id="XMLID_215_" class="st2" d="M269.9,249.6l-38.7,0l-12.1-54.7l-15.5,0l-24.4,54.7l-33.5,0l62.1-139.3l62.7,0
				c18.3,0,30.7,2.2,37.2,6.7c6.5,4.4,7.3,12,2.5,22.8l-10.9,24.5c-3.8,8.4-9.7,15-17.8,19.5c-8.1,4.6-17,7.4-26.5,8.6L269.9,249.6z
				 M269.5,157.5l4.4-9.9c2.3-5.2,2.3-8.7,0.1-10.6c-2.2-1.9-7-2.9-14.5-2.9l-28.8,0l-17.2,38.6l28.8,0c7.9,0,13.7-1,17.5-3.1
				C263.6,167.6,266.8,163.5,269.5,157.5z"/>
			<path id="XMLID_212_" class="st2" d="M373.2,249.6l-30.7,0l4.2-9.4c-4.1,4.2-8.8,7.1-13.8,8.9c-5.1,1.8-13.4,2.7-24.8,2.7
				c-14,0-22.4-2.2-25-6.4c-2.7-4.3-1-13.2,5.1-26.8c5.5-12.3,11.7-20.9,18.5-25.7c6.9-4.8,16.4-7.2,28.5-7.2l35.2,0l3.2-7.1
				c2.8-6.3,3.2-10.5,1.2-12.6c-2-2.1-7.7-3.1-17.2-3.1c-8.9,0-21.4,0.9-37.7,2.6l8.8-19.7c12.5-1.4,26.1-2.1,40.7-2.1
				c19.2,0,31.5,2.3,36.8,7c5.4,4.7,5,13.8-1.1,27.6L373.2,249.6z M353.7,223l9-20.2l-21.5,0c-6.9,0-11.5,0.8-13.9,2.4
				c-2.4,1.6-5.2,5.8-8.2,12.7c-3,6.7-3.9,10.8-2.8,12.2c1.2,1.4,5.4,2.1,12.7,2.1c3.6,0,6.2,0,8-0.1c1.7-0.1,3.7-0.2,5.8-0.5
				c2.1-0.3,3.7-0.8,4.8-1.4c1.1-0.6,2.2-1.5,3.2-2.7C351.9,226.4,352.9,224.9,353.7,223z"/>
			<path id="XMLID_210_" class="st2" d="M478.4,249.6l-93.6,0l7.5-16.7l82.1-66.8l-50.2,0l9.1-20.4l90.2,0l-7.5,16.7l-82.1,66.8
				l53.7,0L478.4,249.6z"/>
			<path id="XMLID_207_" class="st2" d="M622.7,183.3L609.1,214c-3,6.7-6.6,12.5-10.9,17.3c-4.3,4.8-8.6,8.5-12.9,11.2
				c-4.3,2.6-9.4,4.7-15.1,6.1c-5.7,1.4-10.8,2.3-15.2,2.7c-4.4,0.4-9.6,0.5-15.6,0.5s-11.1-0.2-15.1-0.5c-4.1-0.4-8.3-1.3-12.8-2.7
				c-4.4-1.4-7.7-3.5-9.6-6.1c-2-2.6-3-6.4-3-11.2c0-4.8,1.5-10.6,4.5-17.3l13.7-30.7c3.2-7.2,7-13.3,11.5-18.4
				c4.5-5.1,8.9-9,13.4-11.7c4.4-2.7,9.6-4.8,15.4-6.3c5.8-1.5,10.9-2.4,15.1-2.8c4.2-0.4,9.3-0.5,15.2-0.5c5.9,0,10.8,0.2,14.7,0.5
				c3.9,0.4,8.1,1.3,12.6,2.8c4.5,1.5,7.7,3.6,9.7,6.3c2,2.7,3,6.6,2.9,11.7C627.5,170.1,625.9,176.2,622.7,183.3z M576.1,217.7
				l17.5-39.3c2.5-5.6,2.8-9.6,1-11.9c-1.8-2.4-7-3.5-15.6-3.5s-14.8,1.2-18.8,3.5c-3.9,2.4-7.1,6.3-9.6,11.9l-17.5,39.3
				c-2.4,5.4-2.7,9.2-0.9,11.4c1.8,2.1,7.1,3.2,15.9,3.2c8.7,0,15-1.1,18.7-3.2C570.6,226.9,573.7,223.1,576.1,217.7z"/>
			<path id="XMLID_205_" class="st2" d="M710.7,169.6l-10.7,0c-8.6,0-15.7,1.3-21.2,4c-5.5,2.6-9.8,7.2-12.6,13.6l-27.8,62.5
				l-31.4,0l46.3-103.9l29.8,0l-8.1,18.2c2.4-5.2,7.5-9.8,15.2-14.1c7.7-4.2,14.7-6.3,21-6.3l11.2,0L710.7,169.6z"/>
			<path id="XMLID_202_" class="st2" d="M822.2,178.6L807,212.8c-6.9,15.5-14.9,25.8-24.2,31.1c-9.2,5.3-21.6,7.9-37,7.9
				c-9.7,0-16.7-0.8-20.7-2.4c-4.1-1.6-5.7-5-4.8-10.3l-24.6,55.2l-31.4,0l66.2-148.5l29.6,0l-4.6,10.3c3.9-4.6,9-7.8,15.4-9.7
				c6.3-1.9,14.8-2.8,25.4-2.8c8.9,0,15.8,0.7,20.7,2.1c4.9,1.4,8.1,3.8,9.6,7c1.4,3.2,1.7,6.8,1,10.6
				C826.8,167.3,825,172.3,822.2,178.6z M773.8,216.8l17.1-38.4c3-6.7,3.6-11,1.9-12.8c-1.7-1.8-7.5-2.7-17.4-2.7
				c-8.9,0-15.1,1.1-18.8,3.4c-3.7,2.3-6.8,6.3-9.3,12l-17.1,38.4c-2.7,6.2-3.3,10.3-1.6,12.3c1.7,2.1,7.1,3.1,16.2,3.1
				c9.2,0,15.6-1,19.3-3.1C767.9,227.1,771.1,223,773.8,216.8z"/>
			<path id="XMLID_199_" class="st2" d="M899.7,249.7l-30.7,0l4.2-9.4c-4.1,4.2-8.8,7.1-13.8,8.9c-5.1,1.8-13.4,2.7-24.8,2.7
				c-14,0-22.4-2.1-25-6.4c-2.7-4.3-1-13.2,5.1-26.8c5.5-12.3,11.7-20.9,18.5-25.7c6.9-4.8,16.4-7.2,28.5-7.2l35.2,0l3.2-7.1
				c2.8-6.3,3.2-10.5,1.2-12.6c-2-2.1-7.7-3.1-17.2-3.1c-8.9,0-21.4,0.9-37.7,2.6l8.8-19.7c12.5-1.4,26.1-2.1,40.7-2.1
				c19.2,0,31.5,2.3,36.8,7c5.4,4.7,5,13.8-1.1,27.6L899.7,249.7z M880.2,223.1l9-20.2l-21.5,0c-6.9,0-11.5,0.8-13.9,2.4
				c-2.4,1.6-5.2,5.8-8.2,12.7c-3,6.7-3.9,10.8-2.8,12.2c1.2,1.4,5.4,2.1,12.7,2.1c3.6,0,6.2,0,8-0.1c1.7-0.1,3.7-0.2,5.8-0.5
				c2.1-0.3,3.7-0.8,4.8-1.4c1.1-0.6,2.2-1.5,3.2-2.7C878.4,226.4,879.4,224.9,880.2,223.1z"/>
			<path id="XMLID_197_" class="st2" d="M1062,145.8L938.9,294.4l-31.8,0l39.2-45.5l4.5-103l34.1,0l-9.3,73.4l54-73.4L1062,145.8z"
				/>
		</g>
	</g>
</g>
</svg>
